<?xml version="1.0" encoding="UTF-8"?>
<svg xmlns="http://www.w3.org/2000/svg" xmlns:xlink="http://www.w3.org/1999/xlink" width="4536" height="3970" viewBox="0 0 4536 3970">
<path fill-rule="evenodd" fill="rgb(100%, 100%, 100%)" fill-opacity="1" d="M 0.1875 0.519531 L 4535.621094 0.519531 L 4535.621094 3969.027344 L 0.1875 3969.027344 L 0.1875 0.519531 "/>
<path fill-rule="evenodd" fill="rgb(92.96875%, 96.09375%, 94.139099%)" fill-opacity="1" d="M 495.8125 2700.429688 C 580.925781 2954.128906 734.785156 3183.28125 900.101562 3325.683594 C 1065.421875 3468.085938 1242.191406 3523.734375 1432.058594 3518.824219 C 1621.921875 3513.914062 1824.890625 3448.441406 1985.289062 3320.773438 C 2145.699219 3193.101562 2263.550781 3003.234375 2397.761719 2895.210938 C 2531.980469 2787.179688 2682.558594 2760.988281 2846.238281 2780.628906 C 3009.921875 2800.269531 3186.699219 2865.75 3353.648438 2859.199219 C 3520.601562 2852.648438 3677.730469 2774.089844 3795.578125 2590.761719 C 3913.429688 2407.441406 3992 2119.371094 4008.359375 1814.929688 C 4024.730469 1510.480469 3978.898438 1189.671875 3833.230469 927.789062 C 3687.550781 665.898438 3442.03125 462.941406 3173.601562 384.371094 C 2905.171875 305.808594 2613.820312 351.640625 2432.140625 456.390625 C 2250.449219 561.148438 2178.429688 724.820312 2101.5 862.308594 C 2024.570312 999.808594 1942.738281 1111.109375 1801.96875 1160.210938 C 1661.210938 1209.308594 1461.519531 1196.21875 1270.011719 1199.488281 C 1078.511719 1202.769531 895.191406 1222.410156 747.878906 1340.261719 C 600.566406 1458.109375 489.265625 1674.160156 441.800781 1921.320312 C 394.332031 2168.46875 410.699219 2446.730469 495.8125 2700.429688 "/>
<path fill-rule="nonzero" fill="rgb(0%, 0%, 0%)" fill-opacity="1" d="M 3871.53125 2608.179688 C 3870.480469 2625.078125 3869.058594 2641.949219 3867.191406 2658.78125 C 3866.71875 2663.070312 3866.210938 2667.359375 3865.679688 2671.660156 C 3865.511719 2673.03125 3865.328125 2674.378906 3865.160156 2675.75 C 3865.050781 2676.53125 3864.601562 2679.851562 3864.550781 2680.160156 C 3863.359375 2688.460938 3862.078125 2696.738281 3860.660156 2705.011719 C 3855.410156 2735.429688 3848.441406 2765.609375 3839.050781 2795.039062 C 3834.710938 2808.640625 3829.828125 2822.078125 3824.359375 2835.28125 C 3824.28125 2835.46875 3824.238281 2835.550781 3824.128906 2835.800781 C 3823.351562 2837.558594 3822.589844 2839.328125 3821.789062 2841.089844 C 3820.488281 2843.988281 3819.160156 2846.871094 3817.800781 2849.738281 C 3814.839844 2855.941406 3811.730469 2862.070312 3808.460938 2868.109375 C 3802.28125 2879.5 3795.519531 2890.578125 3788.101562 2901.191406 C 3786.25 2903.839844 3784.339844 2906.429688 3782.441406 2909.039062 C 3781.75 2909.988281 3781.441406 2910.449219 3781.25 2910.738281 C 3780.988281 2911.019531 3780.621094 2911.460938 3779.871094 2912.359375 C 3775.851562 2917.199219 3771.828125 2922.050781 3767.570312 2926.691406 C 3759.378906 2935.578125 3750.550781 2943.71875 3741.300781 2951.511719 C 3740.171875 2952.460938 3739.640625 2952.921875 3739.328125 2953.21875 C 3739.03125 2953.410156 3738.578125 2953.730469 3737.730469 2954.339844 C 3735.480469 2955.949219 3733.261719 2957.601562 3730.980469 2959.171875 C 3720.898438 2966.128906 3710.328125 2972.386719 3699.789062 2978.621094 C 3642.601562 3012.507812 3581.898438 3040.480469 3517.460938 3057.367188 C 3416.011719 3083.945312 3311.871094 3077.277344 3214.179688 3039.605469 C 3122.730469 3004.34375 3041.460938 2945.441406 2966.21875 2883.691406 C 2888.53125 2819.949219 2815.628906 2750.308594 2734.648438 2690.621094 C 2674.859375 2646.539062 2609.089844 2605.421875 2536.878906 2585.359375 C 2487.921875 2571.769531 2434.359375 2569.328125 2386.289062 2587.738281 C 2340.789062 2605.160156 2303.101562 2636.5 2272.289062 2673.789062 C 2199.46875 2761.898438 2155.039062 2870.460938 2102.808594 2971.078125 C 2074.410156 3025.800781 2044.230469 3079.839844 2008.410156 3130.113281 C 2004.300781 3135.890625 2000.101562 3141.617188 1995.828125 3147.289062 C 1994.679688 3148.8125 1993.511719 3150.335938 1992.351562 3151.863281 C 1992.171875 3152.089844 1992.011719 3152.300781 1991.898438 3152.441406 C 1989.289062 3155.773438 1986.660156 3159.089844 1983.988281 3162.378906 C 1974.261719 3174.367188 1964.128906 3186.039062 1953.539062 3197.269531 C 1943.261719 3208.179688 1932.539062 3218.6875 1921.371094 3228.6875 C 1915.929688 3233.566406 1910.371094 3238.316406 1904.710938 3242.941406 C 1902.269531 3244.945312 1899.800781 3246.910156 1897.300781 3248.863281 C 1897.328125 3248.796875 1891.128906 3253.496094 1889.820312 3254.445312 C 1784.941406 3330.878906 1649.761719 3349.539062 1526.53125 3316.441406 C 1493.261719 3307.507812 1469.410156 3298.140625 1440.988281 3283.558594 C 1426.5 3276.128906 1412.398438 3267.953125 1398.710938 3259.128906 C 1392.449219 3255.089844 1386.300781 3250.925781 1380.230469 3246.625 C 1377.171875 3244.476562 1374.148438 3242.285156 1371.148438 3240.066406 C 1369.339844 3238.726562 1367.558594 3237.378906 1365.769531 3236.03125 C 1365.21875 3235.609375 1364.929688 3235.394531 1364.609375 3235.167969 C 1364.320312 3234.933594 1364.078125 3234.738281 1363.589844 3234.359375 C 1311.03125 3193.019531 1265.910156 3142.164062 1229.921875 3090.660156 C 1143.371094 2966.800781 1089.898438 2828.46875 1049.960938 2683.679688 C 1008.609375 2533.78125 984.753906 2384.148438 974.125 2230.949219 C 969.394531 2162.871094 967.4375 2094.539062 969.171875 2026.300781 C 969.933594 1996.378906 971.410156 1966.488281 973.855469 1936.660156 C 974.949219 1923.351562 976.226562 1910.058594 977.753906 1896.789062 C 978.449219 1890.71875 979.210938 1884.640625 980.011719 1878.578125 C 980.207031 1877.140625 980.597656 1874.300781 980.773438 1873.109375 C 981.261719 1869.71875 981.769531 1866.328125 982.300781 1862.941406 C 985.570312 1841.980469 989.550781 1821.089844 994.8125 1800.519531 C 997.117188 1791.519531 999.660156 1782.578125 1002.570312 1773.738281 C 1003.828125 1769.910156 1005.148438 1766.089844 1006.570312 1762.308594 C 1007.238281 1760.511719 1007.960938 1758.71875 1008.640625 1756.921875 C 1008.808594 1756.480469 1008.871094 1756.308594 1008.980469 1756.011719 C 1009.050781 1755.839844 1009.070312 1755.808594 1009.160156 1755.609375 C 1036.28125 1693.898438 1072.46875 1645.269531 1117.679688 1598.371094 C 1170.359375 1543.71875 1226.691406 1500.308594 1289.601562 1459.378906 C 1438.820312 1362.261719 1605.210938 1292.730469 1773.910156 1237.421875 C 1960.851562 1176.121094 2153.640625 1132.230469 2348.171875 1103.21875 C 2529.359375 1076.199219 2713.570312 1062.039062 2896.800781 1068.46875 C 2937.371094 1069.898438 2977.898438 1072.410156 3018.320312 1076.320312 C 3057.03125 1080.078125 3087.570312 1084.011719 3125.820312 1090.71875 C 3158.230469 1096.410156 3190.949219 1102.789062 3222.511719 1112.238281 C 3228.550781 1114.050781 3234.539062 1116.039062 3240.460938 1118.210938 C 3243.609375 1119.359375 3246.710938 1120.609375 3249.839844 1121.808594 C 3250.371094 1122.011719 3250.910156 1122.25 3251.449219 1122.460938 C 3249.21875 1121.558594 3254.929688 1123.949219 3255.898438 1124.378906 C 3268.019531 1129.78125 3279.851562 1135.851562 3291.351562 1142.460938 C 3344.238281 1172.839844 3385.269531 1209.78125 3428.261719 1256.808594 C 3476.921875 1310.070312 3516.128906 1365.238281 3554.769531 1427.988281 C 3642.960938 1571.191406 3708.601562 1725.679688 3760.261719 1885.128906 C 3812.460938 2046.230469 3850.769531 2214.789062 3866.429688 2381.199219 C 3873.519531 2456.570312 3876.199219 2532.570312 3871.53125 2608.179688 Z M 1646.371094 1953.820312 C 1646.410156 1953.800781 1646.441406 1953.78125 1646.480469 1953.769531 C 1650.328125 1951.96875 1648.351562 1953.25 1646.441406 1953.808594 C 1646.421875 1953.808594 1646.398438 1953.808594 1646.371094 1953.820312 Z M 1646.480469 1953.769531 C 1646.429688 1953.789062 1646.390625 1953.800781 1646.339844 1953.828125 C 1645.929688 1953.949219 1645.511719 1953.988281 1645.109375 1954.089844 C 1642.511719 1954.261719 1639.921875 1954.261719 1637.320312 1954.070312 C 1635.089844 1953.660156 1632.839844 1953.28125 1630.671875 1952.609375 C 1630.359375 1952.511719 1629.738281 1952.289062 1629.109375 1952.050781 C 1628.179688 1951.601562 1627.058594 1951.058594 1626.589844 1950.789062 C 1625.859375 1950.371094 1625.039062 1949.71875 1624.21875 1949.121094 C 1623.921875 1948.851562 1623.621094 1948.570312 1623.339844 1948.289062 C 1623.269531 1948.210938 1623.140625 1948.050781 1623.011719 1947.878906 C 1622.589844 1947.140625 1622.199219 1946.371094 1621.800781 1945.640625 C 1620.78125 1942.769531 1619.949219 1939.851562 1619.351562 1936.871094 C 1619.238281 1935.109375 1619.25 1933.339844 1619.339844 1931.570312 C 1619.519531 1930.769531 1619.621094 1929.949219 1619.851562 1929.160156 C 1619.960938 1928.78125 1620.089844 1928.410156 1620.21875 1928.039062 C 1620.878906 1926.839844 1621.589844 1925.691406 1622.308594 1924.519531 C 1622.878906 1923.910156 1623.441406 1923.28125 1624.039062 1922.699219 C 1624.550781 1922.199219 1625.101562 1921.71875 1625.640625 1921.238281 C 1627.339844 1920.128906 1629.011719 1919.019531 1630.820312 1918.050781 C 1631.621094 1917.621094 1632.449219 1917.230469 1633.269531 1916.820312 C 1634.800781 1916.269531 1636.371094 1915.949219 1637.921875 1915.601562 C 1638.789062 1915.578125 1639.660156 1915.601562 1640.53125 1915.640625 C 1642.03125 1915.941406 1643.550781 1916.191406 1645.019531 1916.648438 C 1645.679688 1916.851562 1646.300781 1917.078125 1646.941406 1917.320312 C 1649.109375 1918.390625 1651.21875 1919.589844 1653.230469 1920.941406 C 1653.359375 1921.019531 1653.519531 1921.109375 1653.671875 1921.199219 C 1653.941406 1921.429688 1654.199219 1921.640625 1654.449219 1921.871094 C 1655.851562 1923.121094 1657.078125 1924.46875 1658.371094 1925.820312 C 1658.46875 1925.988281 1658.578125 1926.148438 1658.691406 1926.308594 C 1658.828125 1926.621094 1658.988281 1926.910156 1659.199219 1927.308594 C 1659.601562 1928.898438 1659.878906 1930.519531 1660.179688 1932.121094 C 1660.359375 1934.441406 1660.378906 1936.738281 1660.25 1939.050781 C 1659.980469 1940.320312 1659.78125 1941.609375 1659.378906 1942.851562 C 1659.140625 1943.308594 1658.910156 1943.78125 1658.648438 1944.230469 C 1658.351562 1944.730469 1657.808594 1945.410156 1657.320312 1946.101562 C 1656.230469 1947.25 1655.101562 1948.351562 1653.921875 1949.410156 C 1653.308594 1949.828125 1652.710938 1950.261719 1652.078125 1950.648438 C 1650.269531 1951.789062 1648.378906 1952.800781 1646.480469 1953.769531 Z M 1646.339844 1953.828125 C 1646.351562 1953.828125 1646.359375 1953.820312 1646.371094 1953.820312 C 1646.25 1953.878906 1646.140625 1953.960938 1646.03125 1954.019531 C 1646.011719 1954.03125 1646 1954.03125 1645.988281 1954.039062 C 1645.949219 1954.039062 1645.921875 1954.039062 1645.878906 1954.050781 C 1646.070312 1953.960938 1646.179688 1953.910156 1646.339844 1953.828125 Z M 1659.148438 1927.078125 C 1659.121094 1927.011719 1659.089844 1926.941406 1659.050781 1926.878906 C 1658.941406 1926.691406 1658.800781 1926.511719 1658.691406 1926.308594 C 1658.628906 1926.210938 1658.558594 1926.070312 1658.511719 1925.96875 C 1658.640625 1926.101562 1658.761719 1926.230469 1658.890625 1926.359375 C 1658.96875 1926.441406 1658.96875 1926.429688 1659.039062 1926.488281 C 1659.039062 1926.5 1659.039062 1926.5 1659.039062 1926.5 C 1659.089844 1926.691406 1659.109375 1926.878906 1659.148438 1927.078125 Z M 1659.199219 1927.308594 C 1659.191406 1927.230469 1659.179688 1927.148438 1659.148438 1927.078125 C 1659.558594 1927.789062 1659.890625 1928.53125 1660.300781 1929.238281 C 1659.851562 1928.480469 1659.511719 1927.859375 1659.199219 1927.308594 Z M 1657.589844 1945.839844 C 1658.128906 1945.148438 1658.71875 1944.488281 1658.96875 1944.238281 C 1658.96875 1944.261719 1658.949219 1944.320312 1658.941406 1944.339844 C 1658.789062 1944.519531 1658.558594 1944.808594 1658.078125 1945.359375 C 1657.921875 1945.53125 1657.75 1945.671875 1657.589844 1945.839844 Z M 1657.101562 1946.480469 C 1656.910156 1946.78125 1656.640625 1947.121094 1656.589844 1947.378906 C 1656.628906 1947.179688 1656.839844 1946.851562 1657.101562 1946.480469 Z M 1645.351562 1954.300781 C 1645.378906 1954.289062 1645.421875 1954.289062 1645.460938 1954.28125 C 1644.738281 1954.621094 1644 1954.941406 1643.289062 1955.308594 C 1644.101562 1954.898438 1644.75 1954.589844 1645.351562 1954.300781 Z M 1656 1922.890625 C 1655.390625 1922.429688 1654.78125 1921.96875 1654.171875 1921.5 C 1654.871094 1921.910156 1655.601562 1922.359375 1656 1922.890625 Z M 1658.78125 1925.710938 C 1658.519531 1925.378906 1658.28125 1925.058594 1658.019531 1924.75 C 1657.949219 1924.328125 1658.410156 1924.839844 1658.78125 1925.710938 Z M 1644.160156 1867 C 1629.410156 1865.289062 1613.898438 1870.429688 1601.640625 1878.53125 C 1587.789062 1887.679688 1576.730469 1900.808594 1572.460938 1917.109375 C 1568.558594 1931.960938 1570.078125 1948.300781 1576.019531 1962.378906 C 1576.449219 1963.410156 1576.898438 1964.351562 1577.339844 1965.300781 C 1577.710938 1966.269531 1578.03125 1967.230469 1578.480469 1968.230469 C 1589.078125 1991.808594 1617.230469 2003.351562 1641.78125 2003.230469 C 1665.421875 2003.109375 1689.859375 1988.980469 1701.320312 1968.070312 C 1715.441406 1942.289062 1711.101562 1906.609375 1688.609375 1886.960938 C 1675.808594 1875.769531 1661.039062 1868.929688 1644.160156 1867 Z M 1433.191406 2071.929688 C 1433.519531 2072.03125 1433.859375 2072.101562 1434.160156 2072.210938 C 1434.230469 2072.238281 1434.289062 2072.269531 1434.359375 2072.289062 C 1434.160156 2072.261719 1433.890625 2072.320312 1433.738281 2072.238281 C 1433.410156 2072.070312 1433.28125 2071.988281 1433.191406 2071.929688 Z M 1434.160156 2072.210938 C 1433.460938 2071.949219 1432.941406 2071.761719 1433.191406 2071.929688 C 1432.390625 2071.691406 1431.601562 2071.449219 1430.828125 2071.238281 C 1430.820312 2071.238281 1430.820312 2071.238281 1430.820312 2071.230469 C 1429.851562 2070.648438 1428.761719 2070.03125 1427.738281 2069.5 C 1426.890625 2069.050781 1426.359375 2068.800781 1425.960938 2068.609375 C 1425.871094 2068.480469 1425.679688 2068.269531 1425.230469 2067.871094 C 1413.851562 2057.871094 1409.980469 2051.710938 1402.261719 2036.550781 C 1390 2012.480469 1382.109375 1983.050781 1384.140625 1955.308594 C 1384.429688 1953.949219 1384.710938 1952.589844 1385.011719 1951.230469 C 1385.191406 1950.371094 1385.820312 1949.160156 1385.878906 1948.238281 C 1400.421875 1942.96875 1414.828125 1937.320312 1429.578125 1932.691406 C 1461.53125 1922.628906 1494.089844 1914.558594 1526.058594 1904.5 C 1538.5 1900.570312 1546.960938 1887.5 1543.128906 1874.429688 C 1529.289062 1827.230469 1514.308594 1780.300781 1497.949219 1733.910156 C 1497.210938 1731.679688 1496.941406 1726.519531 1497.019531 1731.851562 C 1497 1730.859375 1496.980469 1729.871094 1496.96875 1728.871094 C 1497.03125 1728.578125 1497.109375 1727.988281 1497.25 1726.828125 C 1497.320312 1726.28125 1497.511719 1725.710938 1497.730469 1725.160156 C 1497.859375 1724.949219 1497.890625 1724.871094 1498.089844 1724.578125 C 1499.160156 1722.96875 1500.109375 1721.25 1501.148438 1719.601562 C 1501.328125 1719.308594 1501.410156 1719.148438 1501.480469 1719.011719 C 1501.800781 1718.71875 1502.238281 1718.328125 1502.890625 1717.699219 C 1504.460938 1716.179688 1505.941406 1714.578125 1507.550781 1713.101562 C 1508.339844 1712.371094 1511 1710.199219 1511.929688 1709.410156 C 1513.050781 1708.671875 1516.351562 1706.378906 1517.019531 1705.949219 C 1519.121094 1704.589844 1521.261719 1703.289062 1523.441406 1702.050781 C 1528.371094 1699.210938 1533.46875 1696.710938 1538.660156 1694.378906 C 1539.789062 1693.929688 1542.53125 1692.78125 1543.21875 1692.519531 C 1545.769531 1691.550781 1548.328125 1690.628906 1550.910156 1689.761719 C 1556.851562 1687.769531 1562.859375 1686.03125 1568.941406 1684.570312 C 1574.539062 1683.21875 1580.199219 1682.121094 1585.898438 1681.21875 C 1585.960938 1681.21875 1585.960938 1681.21875 1586.019531 1681.199219 C 1586.050781 1681.199219 1586.050781 1681.199219 1586.078125 1681.199219 C 1587.191406 1681.078125 1588.300781 1680.929688 1589.398438 1680.839844 C 1592.628906 1680.578125 1595.859375 1680.320312 1599.101562 1680.199219 C 1604.21875 1680.019531 1609.269531 1680.21875 1614.378906 1680.550781 C 1614.898438 1680.578125 1615.21875 1680.589844 1615.429688 1680.578125 C 1615.710938 1680.648438 1615.898438 1680.699219 1616.289062 1680.78125 C 1618.878906 1681.371094 1621.480469 1681.839844 1624.03125 1682.601562 C 1624.5 1682.75 1626.050781 1683.351562 1627.179688 1683.769531 C 1628.121094 1684.289062 1629.429688 1684.980469 1629.890625 1685.21875 C 1630.171875 1685.371094 1630.300781 1685.441406 1630.511719 1685.539062 C 1630.550781 1685.628906 1630.570312 1685.691406 1630.691406 1685.839844 C 1631.039062 1686.300781 1631.261719 1686.550781 1631.460938 1686.800781 C 1632.160156 1690.410156 1633.210938 1694.050781 1634.070312 1697.628906 C 1636.019531 1705.769531 1638.109375 1713.878906 1640.371094 1721.949219 C 1651.078125 1760.171875 1664.621094 1797.519531 1675.230469 1835.800781 C 1678.800781 1848.71875 1692.441406 1856.121094 1705.289062 1852.871094 C 1749.519531 1841.691406 1792.578125 1826.371094 1836.820312 1815.230469 C 1838.738281 1814.75 1840.660156 1814.269531 1842.570312 1813.820312 C 1843.898438 1813.839844 1846.21875 1813.988281 1846.921875 1813.949219 C 1848.378906 1814.320312 1849.828125 1814.660156 1851.300781 1815.019531 C 1851.429688 1815.050781 1851.570312 1815.101562 1851.71875 1815.148438 C 1852.71875 1815.621094 1853.71875 1816.070312 1854.640625 1816.628906 C 1856.648438 1817.859375 1858.609375 1819.140625 1860.539062 1820.488281 C 1861.191406 1821.128906 1863.878906 1823.421875 1864.570312 1824.058594 C 1866.589844 1826.019531 1868.488281 1828.089844 1870.359375 1830.171875 C 1871.148438 1831.039062 1871.890625 1831.960938 1872.621094 1832.871094 C 1873.019531 1833.390625 1873.589844 1834.128906 1874 1834.738281 C 1877.449219 1839.820312 1880.730469 1844.960938 1883.628906 1850.390625 C 1885.109375 1853.171875 1886.460938 1856 1887.839844 1858.839844 C 1887.960938 1859.101562 1888.539062 1860.410156 1888.941406 1861.289062 C 1889.351562 1862.351562 1890.308594 1864.769531 1890.429688 1865.089844 C 1892.761719 1871.421875 1894.800781 1877.820312 1896.429688 1884.359375 C 1897.171875 1887.378906 1897.828125 1890.410156 1898.410156 1893.46875 C 1898.691406 1894.96875 1898.949219 1896.480469 1899.179688 1897.980469 C 1899.210938 1898.171875 1899.230469 1898.230469 1899.25 1898.351562 C 1899.269531 1898.609375 1899.28125 1898.871094 1899.320312 1899.308594 C 1899.78125 1905.039062 1900.101562 1910.738281 1899.808594 1916.488281 C 1899.75 1917.621094 1899.300781 1920.789062 1899.210938 1921.75 C 1898.671875 1924.238281 1898.078125 1926.691406 1897.460938 1929.179688 C 1897.28125 1929.898438 1896.96875 1930.621094 1896.699219 1931.359375 C 1896.660156 1931.429688 1896.621094 1931.511719 1896.578125 1931.578125 C 1895.859375 1932.828125 1895.078125 1934.039062 1894.328125 1935.261719 C 1894.050781 1935.511719 1893.46875 1936.148438 1892.851562 1936.828125 C 1892.621094 1936.851562 1890.851562 1938.171875 1889.28125 1939.199219 C 1889.039062 1938.890625 1882.058594 1941.160156 1880.511719 1941.578125 C 1874.238281 1943.261719 1868.019531 1945.171875 1861.839844 1947.210938 C 1848.839844 1951.519531 1836.050781 1956.46875 1823.269531 1961.398438 C 1798.25 1971.050781 1773.140625 1980.769531 1746.5 1984.871094 C 1732.679688 1986.988281 1727.289062 2003.230469 1729.429688 2014.929688 C 1734.960938 2045.078125 1751.53125 2074.21875 1761.460938 2099.570312 C 1765.191406 2109.058594 1768.460938 2118.738281 1771.378906 2128.519531 C 1772.980469 2133.871094 1774.480469 2139.269531 1775.890625 2144.691406 C 1776.738281 2147.960938 1777.511719 2151.25 1778.339844 2154.519531 C 1778.328125 2154.660156 1778.308594 2154.710938 1778.300781 2154.859375 C 1778.199219 2155.628906 1778.210938 2156.46875 1778.199219 2157.289062 C 1778.179688 2157.320312 1778.171875 2157.339844 1778.148438 2157.378906 C 1777.808594 2158.070312 1777.539062 2159.21875 1777.308594 2160.128906 C 1776.261719 2161.820312 1775.230469 2163.511719 1774.140625 2165.179688 C 1773.609375 2165.589844 1770.488281 2169.25 1769.488281 2170.199219 C 1768.699219 2170.949219 1763.671875 2174.960938 1764 2174.851562 C 1762.050781 2176.230469 1760.101562 2177.589844 1758.070312 2178.851562 C 1751.890625 2182.699219 1745.378906 2186.050781 1738.71875 2188.980469 C 1738.519531 2188.988281 1731.929688 2191.609375 1730.789062 2192.019531 C 1727.808594 2193.078125 1724.800781 2194.070312 1721.769531 2195 C 1714.269531 2197.308594 1706.640625 2199.210938 1698.949219 2200.699219 C 1697.488281 2200.980469 1692.179688 2201.851562 1691.03125 2202.070312 C 1689.96875 2202.148438 1684.828125 2202.710938 1683.441406 2202.820312 C 1676.839844 2203.300781 1670.320312 2203.210938 1663.710938 2202.859375 C 1663.109375 2202.839844 1662.75 2202.820312 1662.378906 2202.808594 C 1662.238281 2202.75 1662.050781 2202.679688 1661.671875 2202.589844 C 1659.921875 2202.128906 1657.898438 2201.488281 1656 2201.03125 C 1653.980469 2192.519531 1647.480469 2179.820312 1644.339844 2170.589844 C 1640.261719 2158.621094 1636.550781 2146.511719 1632.949219 2134.378906 C 1624.960938 2107.421875 1616.988281 2080.519531 1607.53125 2054.039062 C 1601.730469 2037.820312 1586.820312 2032.929688 1571.640625 2039.421875 C 1532.980469 2055.960938 1490.640625 2060.710938 1449.851562 2069.421875 C 1445.851562 2070.269531 1440.898438 2070.730469 1437.019531 2072.199219 C 1435.769531 2072.179688 1435.039062 2072.238281 1434.730469 2072.320312 C 1434.628906 2072.320312 1434.539062 2072.308594 1434.449219 2072.300781 C 1434.371094 2072.261719 1434.25 2072.25 1434.160156 2072.210938 Z M 1434.730469 2072.320312 C 1435.320312 2072.359375 1435.851562 2072.429688 1436.480469 2072.351562 C 1436.019531 2072.53125 1435.53125 2072.589844 1435.148438 2072.578125 C 1434.96875 2072.511719 1434.859375 2072.460938 1434.609375 2072.359375 C 1434.628906 2072.339844 1434.691406 2072.328125 1434.730469 2072.320312 Z M 1436.480469 2072.351562 C 1436.648438 2072.28125 1436.851562 2072.269531 1437.019531 2072.199219 C 1437.308594 2072.210938 1437.558594 2072.199219 1437.910156 2072.21875 C 1437.539062 2072.199219 1436.988281 2072.289062 1436.480469 2072.351562 Z M 1896.839844 1931.078125 C 1897.800781 1928.539062 1897.351562 1929.988281 1896.839844 1931.078125 Z M 1434.589844 2072.378906 C 1434.769531 2072.441406 1434.929688 2072.511719 1435.089844 2072.578125 C 1434.679688 2072.558594 1434.429688 2072.46875 1434.589844 2072.378906 Z M 1385.03125 1948.558594 C 1384.769531 1948.699219 1384.558594 1948.828125 1384.25 1948.980469 C 1384.699219 1948.75 1384.738281 1948.699219 1384.648438 1948.691406 C 1384.808594 1948.640625 1384.859375 1948.621094 1385.03125 1948.558594 Z M 1386.339844 1947.449219 C 1386.351562 1947.429688 1386.351562 1947.429688 1386.359375 1947.421875 C 1387.589844 1946.121094 1388.621094 1946.398438 1386 1948.011719 C 1386.109375 1947.820312 1386.21875 1947.640625 1386.339844 1947.449219 Z M 1497.679688 1725.238281 C 1497.128906 1726.429688 1496.839844 1726.601562 1497.679688 1725.238281 Z M 1852.601562 1815.480469 C 1853.300781 1815.75 1853.660156 1815.941406 1852.601562 1815.480469 Z M 1848.289062 1765.03125 C 1838.410156 1764.371094 1828.820312 1766.800781 1819.328125 1769.261719 C 1804.28125 1773.160156 1789.351562 1777.441406 1774.480469 1781.910156 C 1754.820312 1787.820312 1735.230469 1793.910156 1715.480469 1799.488281 C 1706.121094 1768.769531 1695.671875 1738.390625 1687.078125 1707.441406 C 1682.828125 1692.089844 1681.289062 1674.210938 1672.671875 1660.511719 C 1665.320312 1648.820312 1653.671875 1641.480469 1640.96875 1636.808594 C 1615.828125 1627.558594 1586.03125 1630.828125 1560.480469 1636.398438 C 1533.859375 1642.199219 1506.679688 1652.710938 1484.71875 1669.070312 C 1460.421875 1687.179688 1440.410156 1715.238281 1450.808594 1746.898438 C 1464.539062 1785.789062 1477.078125 1825.109375 1488.988281 1864.601562 C 1464.851562 1871.589844 1440.550781 1878.019531 1416.589844 1885.550781 C 1400.058594 1890.75 1383.601562 1896.691406 1367.539062 1903.171875 C 1350.78125 1909.898438 1340.890625 1923.988281 1337.148438 1941.421875 C 1329.269531 1978.261719 1340.828125 2019.140625 1355.949219 2052.609375 C 1370.121094 2083.960938 1396.371094 2120.699219 1434.578125 2121.171875 C 1449.351562 2121.339844 1464.648438 2116.089844 1479 2113.199219 C 1493.148438 2110.351562 1507.359375 2107.800781 1521.519531 2104.96875 C 1537.808594 2101.710938 1553.441406 2097.339844 1568.878906 2092.070312 C 1574.828125 2110.390625 1580.339844 2128.871094 1585.820312 2147.371094 C 1593.488281 2173.261719 1600.550781 2201.988281 1613.238281 2225.921875 C 1627.660156 2253.121094 1665.449219 2254.03125 1692.050781 2250.839844 C 1726.109375 2246.738281 1761.660156 2236.558594 1789.800781 2216.300781 C 1804.210938 2205.921875 1816.53125 2193.429688 1823.101562 2176.660156 C 1830.679688 2157.339844 1825.148438 2138.488281 1819.628906 2119.351562 C 1812.808594 2095.699219 1803.460938 2073.128906 1792.910156 2050.929688 C 1788.789062 2042.230469 1785.550781 2034.960938 1782.828125 2026.898438 C 1801.019531 2022.019531 1818.671875 2015.320312 1836.261719 2008.53125 C 1849.039062 2003.601562 1861.828125 1998.640625 1874.839844 1994.339844 C 1885.75 1990.730469 1897.261719 1988.609375 1907.871094 1984.230469 C 1937.640625 1971.941406 1949.070312 1940.488281 1948.800781 1910.191406 C 1948.300781 1854.371094 1913.011719 1769.308594 1848.289062 1765.03125 Z M 2777.519531 2300.210938 C 2778.28125 2299.289062 2778.769531 2299.628906 2777.519531 2300.210938 Z M 2773.308594 2303.160156 C 2773.308594 2303.179688 2773.300781 2303.199219 2773.289062 2303.21875 C 2773.058594 2303.589844 2772.929688 2303.828125 2772.929688 2303.898438 C 2772.320312 2304.980469 2771.980469 2305.199219 2773.308594 2303.160156 Z M 2596.839844 2348.140625 C 2521.089844 2366.140625 2445.050781 2382.910156 2368.769531 2398.519531 C 2302.339844 2412.121094 2235.671875 2425.261719 2168.539062 2435.039062 C 2165.5 2435.46875 2162.449219 2435.910156 2159.410156 2436.328125 C 2157.898438 2436.550781 2157.210938 2436.648438 2156.820312 2436.710938 C 2156.460938 2436.738281 2155.800781 2436.820312 2154.359375 2437.011719 C 2148.511719 2437.75 2142.660156 2438.46875 2136.808594 2439.089844 C 2136.078125 2439.171875 2133.601562 2439.191406 2130.988281 2439.289062 C 2129.960938 2437.371094 2128.949219 2435.460938 2127.949219 2433.53125 C 2127.75 2433.128906 2127.371094 2432.269531 2127.078125 2431.601562 C 2126.648438 2430.550781 2126.230469 2429.488281 2125.839844 2428.429688 C 2123.101562 2420.671875 2120.589844 2412.859375 2118.511719 2404.890625 C 2116.519531 2397.25 2114.820312 2389.539062 2113.410156 2381.78125 C 2113.019531 2379.640625 2112.679688 2377.488281 2112.300781 2375.351562 C 2112.210938 2374.828125 2111.941406 2373 2111.800781 2372.078125 C 2111.308594 2368.351562 2110.910156 2364.601562 2110.621094 2360.851562 C 2110.140625 2354.449219 2110.078125 2348.101562 2110.28125 2341.691406 C 2110.289062 2341.578125 2110.328125 2341.140625 2110.390625 2340.609375 C 2110.429688 2340.578125 2110.488281 2340.558594 2110.519531 2340.519531 C 2110.738281 2340.421875 2110.769531 2340.390625 2110.929688 2340.300781 C 2111.289062 2340.171875 2111.519531 2340.101562 2112.050781 2339.910156 C 2115.179688 2338.738281 2118.300781 2337.558594 2121.449219 2336.460938 C 2138.890625 2330.390625 2156.691406 2325.328125 2174.480469 2320.410156 C 2227.949219 2305.621094 2281.941406 2292.71875 2335.988281 2280.238281 C 2451.691406 2253.511719 2568.089844 2227.988281 2685.328125 2208.910156 C 2695.128906 2207.320312 2704.949219 2205.851562 2714.769531 2204.421875 C 2714.941406 2204.390625 2714.980469 2204.390625 2715.109375 2204.371094 C 2717.050781 2204.140625 2718.980469 2203.871094 2720.921875 2203.640625 C 2724.53125 2203.199219 2728.128906 2202.789062 2731.738281 2202.449219 C 2735.980469 2202.050781 2740.210938 2201.871094 2744.460938 2201.71875 C 2744.789062 2202.011719 2745.121094 2202.308594 2745.429688 2202.621094 C 2745.449219 2202.628906 2745.449219 2202.628906 2745.460938 2202.640625 C 2746.25 2203.808594 2747.058594 2204.941406 2747.820312 2206.121094 C 2749.480469 2208.691406 2751 2211.320312 2752.460938 2214 C 2754.058594 2216.929688 2755.550781 2219.921875 2756.980469 2222.929688 C 2757.660156 2224.339844 2758.300781 2225.761719 2758.941406 2227.191406 C 2759.261719 2227.898438 2759.449219 2228.320312 2759.589844 2228.628906 C 2759.648438 2228.808594 2759.808594 2229.25 2760.21875 2230.289062 C 2766.171875 2245.53125 2770.589844 2261.179688 2773.550781 2277.269531 C 2773.660156 2277.859375 2773.878906 2279.511719 2774 2280.339844 C 2774.121094 2281.371094 2774.25 2282.398438 2774.308594 2283.429688 C 2774.53125 2286.980469 2774.769531 2290.511719 2774.699219 2294.070312 C 2774.679688 2295.789062 2774.230469 2299.488281 2774.371094 2299.308594 C 2774.230469 2299.980469 2774.089844 2300.640625 2773.960938 2301.320312 C 2773.949219 2301.359375 2773.929688 2301.390625 2773.929688 2301.441406 C 2770.441406 2302.519531 2766.96875 2303.691406 2763.480469 2304.769531 C 2708.648438 2321.628906 2652.628906 2334.890625 2596.839844 2348.140625 Z M 2110.171875 2340.941406 C 2110.089844 2341.410156 2110.109375 2341.308594 2110.171875 2340.941406 Z M 2103.820312 2344.308594 C 2104.171875 2344.058594 2104.5 2343.789062 2104.839844 2343.519531 C 2105.019531 2343.410156 2105.199219 2343.289062 2105.339844 2343.238281 C 2105.578125 2343.171875 2105.828125 2343 2106.070312 2342.898438 C 2102.050781 2346.53125 2102.589844 2345.449219 2103.820312 2344.308594 Z M 2747.691406 2201.589844 C 2750.839844 2201.578125 2750.359375 2202 2747.691406 2201.589844 Z M 2776.550781 2300.589844 C 2776.441406 2300.621094 2776.328125 2300.671875 2776.21875 2300.699219 C 2776.378906 2300.621094 2776.46875 2300.601562 2776.550781 2300.589844 Z M 2760.300781 2154.558594 C 2748.660156 2150.871094 2735.058594 2153.101562 2723.238281 2154.480469 C 2674.191406 2160.191406 2625.519531 2169.621094 2577.070312 2179 C 2511.019531 2191.769531 2445.191406 2205.660156 2379.519531 2220.289062 C 2317.480469 2234.109375 2255.53125 2248.5 2194.019531 2264.550781 C 2157.769531 2274.011719 2117.300781 2281.789062 2083.789062 2299.320312 C 2080.429688 2301.078125 2077.488281 2303.160156 2074.851562 2305.578125 C 2072.609375 2307.351562 2070.53125 2309.539062 2068.789062 2312.421875 C 2067.828125 2313.789062 2067.078125 2315.25 2066.53125 2316.75 C 2053.761719 2343.679688 2063.261719 2383.621094 2069.5 2410.261719 C 2075.699219 2436.78125 2086.78125 2483.691406 2119.351562 2488.621094 C 2130.53125 2490.308594 2143.210938 2487.320312 2154.359375 2485.890625 C 2169.539062 2483.929688 2184.699219 2481.761719 2199.828125 2479.398438 C 2234.558594 2473.960938 2269.160156 2467.679688 2303.691406 2461.101562 C 2452.199219 2432.820312 2601.039062 2401.171875 2746.730469 2360.558594 C 2768.839844 2354.390625 2801.679688 2350.019531 2814.800781 2329.210938 C 2832.289062 2301.488281 2821.839844 2260.179688 2812.460938 2231.480469 C 2803.980469 2205.589844 2789.601562 2163.828125 2760.300781 2154.558594 Z M 2100.058594 1434.820312 C 2099.960938 1435.898438 2099.949219 1436.339844 2100.058594 1434.820312 C 2100.128906 1433.941406 2100.25 1432.730469 2100.421875 1431.949219 C 2101.109375 1428.628906 2102.03125 1425.339844 2103.191406 1422.160156 C 2103.21875 1422.050781 2103.269531 1421.949219 2103.308594 1421.839844 C 2104.03125 1420.441406 2104.710938 1419.011719 2105.5 1417.628906 C 2106.308594 1416.21875 2107.238281 1414.890625 2108.101562 1413.511719 C 2110.289062 1411.058594 2112.601562 1408.800781 2115.109375 1406.691406 C 2115.148438 1406.671875 2115.171875 1406.660156 2115.210938 1406.628906 C 2115.949219 1406.160156 2116.679688 1405.640625 2117.429688 1405.160156 C 2119.121094 1404.078125 2120.859375 1403.058594 2122.628906 1402.121094 C 2123.621094 1401.589844 2124.730469 1401.140625 2125.769531 1400.628906 C 2126.75 1400.328125 2127.71875 1399.980469 2128.699219 1399.679688 C 2130.410156 1399.171875 2132.128906 1398.75 2133.878906 1398.398438 C 2134.050781 1398.359375 2134.101562 1398.339844 2134.25 1398.320312 C 2137.441406 1398.199219 2140.550781 1398.199219 2143.738281 1398.320312 C 2143.78125 1398.320312 2143.78125 1398.339844 2143.820312 1398.339844 C 2145.410156 1398.710938 2147.011719 1399.03125 2148.578125 1399.46875 C 2149.921875 1399.839844 2151.25 1400.269531 2152.558594 1400.730469 C 2152.820312 1400.828125 2153.140625 1400.96875 2153.441406 1401.101562 C 2156.179688 1402.570312 2158.929688 1403.96875 2161.53125 1405.710938 C 2162.238281 1406.171875 2162.949219 1406.75 2163.660156 1407.28125 C 2164.191406 1407.738281 2164.730469 1408.191406 2165.25 1408.671875 C 2167.441406 1410.660156 2169.421875 1412.828125 2171.421875 1415.03125 C 2171.5 1415.128906 2171.519531 1415.140625 2171.601562 1415.230469 C 2172.519531 1416.578125 2173.460938 1417.910156 2174.320312 1419.308594 C 2175.121094 1420.628906 2175.871094 1421.980469 2176.589844 1423.351562 C 2176.800781 1423.75 2177.261719 1424.789062 2177.589844 1425.5 C 2177.75 1425.910156 2177.890625 1426.289062 2177.960938 1426.488281 C 2178.488281 1428.101562 2178.960938 1429.738281 2179.351562 1431.398438 C 2179.460938 1431.828125 2179.660156 1432.949219 2179.808594 1433.828125 C 2179.820312 1433.960938 2179.828125 1434.089844 2179.828125 1434.191406 C 2180 1437.441406 2179.71875 1440.648438 2179.46875 1443.890625 C 2179.449219 1443.980469 2179.441406 1444.011719 2179.421875 1444.121094 C 2179.148438 1445.46875 2178.898438 1446.828125 2178.578125 1448.179688 C 2177.839844 1451.410156 2176.78125 1454.480469 2175.738281 1457.621094 C 2175.21875 1458.691406 2174.710938 1459.75 2174.140625 1460.800781 C 2172.859375 1463.148438 2171.230469 1465.300781 2169.828125 1467.550781 C 2169.679688 1467.730469 2169.539062 1467.910156 2169.390625 1468.070312 C 2168.570312 1468.980469 2167.730469 1469.871094 2166.859375 1470.730469 C 2165.878906 1471.699219 2164.839844 1472.578125 2163.839844 1473.519531 C 2161.648438 1475.019531 2159.359375 1476.371094 2157 1477.570312 C 2156.878906 1477.628906 2156.75 1477.679688 2156.640625 1477.738281 C 2155.410156 1478.140625 2154.179688 1478.679688 2152.988281 1479.039062 C 2150.578125 1479.761719 2148.140625 1480.191406 2145.699219 1480.699219 C 2145.578125 1480.71875 2145.460938 1480.730469 2145.359375 1480.738281 C 2143.53125 1480.871094 2141.691406 1480.941406 2139.859375 1480.929688 C 2138.441406 1480.929688 2137.03125 1480.878906 2135.628906 1480.800781 C 2135.160156 1480.769531 2133.308594 1480.558594 2132.261719 1480.46875 C 2131.449219 1480.328125 2130.679688 1480.199219 2130.390625 1480.128906 C 2128.339844 1479.71875 2126.300781 1479.238281 2124.289062 1478.699219 C 2121 1477.820312 2117.851562 1476.601562 2114.621094 1475.550781 C 2113.699219 1475.019531 2112.789062 1474.480469 2111.871094 1473.941406 C 2111.730469 1473.789062 2111.570312 1473.648438 2111.410156 1473.53125 C 2110.828125 1473.050781 2110.21875 1472.578125 2109.789062 1472.148438 C 2109.050781 1471.410156 2108.359375 1470.609375 2107.660156 1469.839844 C 2106.269531 1467.789062 2105.03125 1465.640625 2103.921875 1463.421875 C 2103.800781 1463.179688 2103.679688 1462.949219 2103.578125 1462.71875 C 2103.21875 1461.789062 2102.859375 1460.859375 2102.558594 1459.929688 C 2101.609375 1457.019531 2100.851562 1454.050781 2100.261719 1451.039062 C 2100.171875 1450.621094 2100.089844 1450.199219 2100.03125 1449.78125 C 2099.921875 1448.640625 2099.800781 1447.488281 2099.730469 1446.351562 C 2099.550781 1442.96875 2099.578125 1439.578125 2099.808594 1436.199219 C 2099.910156 1434.710938 2100.148438 1433.230469 2100.238281 1431.75 C 2100.148438 1433.261719 2100.089844 1434.160156 2100.058594 1434.820312 Z M 2111.871094 1473.941406 C 2112.148438 1474.179688 2112.398438 1474.441406 2112.558594 1474.691406 C 2112.378906 1474.398438 2112.03125 1474.121094 2111.710938 1473.839844 C 2111.769531 1473.871094 2111.820312 1473.898438 2111.871094 1473.941406 Z M 2111.710938 1473.839844 C 2111.480469 1473.691406 2111.25 1473.570312 2111.011719 1473.429688 C 2108.449219 1471.851562 2110.039062 1472.460938 2111.410156 1473.53125 C 2111.519531 1473.628906 2111.601562 1473.730469 2111.710938 1473.839844 Z M 2155.160156 1401.71875 C 2155.019531 1401.691406 2154.78125 1401.601562 2154.511719 1401.488281 C 2154.730469 1401.570312 2154.960938 1401.679688 2155.160156 1401.71875 Z M 2162.839844 1474.351562 C 2162.589844 1474.539062 2162.460938 1474.640625 2162.839844 1474.351562 Z M 2131.300781 1529.308594 C 2166 1533.070312 2201.339844 1515.191406 2217.230469 1483.769531 C 2225.199219 1468.03125 2230.339844 1448.828125 2228.449219 1431.089844 C 2226.359375 1411.421875 2218.199219 1394.191406 2205.078125 1379.449219 C 2192.019531 1364.761719 2172.878906 1353.519531 2153.339844 1350.628906 C 2141.140625 1348.820312 2129.210938 1348.878906 2117.191406 1352.128906 C 2103.519531 1355.828125 2092.210938 1362.960938 2081.171875 1371.53125 C 2053.808594 1393.808594 2046.039062 1433.351562 2053.640625 1466.449219 C 2057.128906 1481.628906 2064.871094 1497.148438 2076.390625 1507.839844 C 2091.289062 1521.660156 2111.539062 1527.160156 2131.300781 1529.308594 Z M 2357.328125 1332.550781 C 2357.511719 1332.511719 2357.558594 1332.5 2357.699219 1332.460938 C 2360.890625 1332.339844 2364.011719 1332.339844 2367.199219 1332.46875 C 2367.238281 1332.480469 2367.238281 1332.480469 2367.269531 1332.488281 C 2368.871094 1332.851562 2370.460938 1333.171875 2372.039062 1333.621094 C 2373.371094 1333.988281 2374.699219 1334.410156 2376.011719 1334.871094 C 2376.28125 1334.96875 2376.589844 1335.121094 2376.890625 1335.238281 C 2379.640625 1336.710938 2382.390625 1338.121094 2384.988281 1339.859375 C 2385.691406 1340.328125 2386.410156 1340.898438 2387.121094 1341.421875 C 2387.648438 1341.890625 2388.179688 1342.339844 2388.699219 1342.808594 C 2390.890625 1344.808594 2392.878906 1346.980469 2394.871094 1349.179688 C 2394.960938 1349.269531 2394.980469 1349.289062 2395.058594 1349.378906 C 2395.980469 1350.730469 2396.910156 1352.070312 2397.761719 1353.460938 C 2398.578125 1354.789062 2399.328125 1356.128906 2400.039062 1357.5 C 2400.25 1357.898438 2400.71875 1358.929688 2401.050781 1359.640625 C 2401.199219 1360.070312 2401.339844 1360.441406 2401.398438 1360.628906 C 2401.949219 1362.238281 2402.421875 1363.890625 2402.808594 1365.539062 C 2402.910156 1365.980469 2403.109375 1367.089844 2403.261719 1367.96875 C 2403.269531 1368.109375 2403.289062 1368.25 2403.289062 1368.328125 C 2403.449219 1371.589844 2403.179688 1374.800781 2402.929688 1378.03125 C 2402.910156 1378.140625 2402.898438 1378.148438 2402.878906 1378.269531 C 2402.589844 1379.628906 2402.351562 1380.980469 2402.039062 1382.328125 C 2401.289062 1385.558594 2400.238281 1388.628906 2399.199219 1391.78125 C 2398.671875 1392.828125 2398.171875 1393.910156 2397.601562 1394.941406 C 2396.320312 1397.300781 2394.691406 1399.441406 2393.289062 1401.710938 C 2393.140625 1401.878906 2392.988281 1402.050781 2392.851562 1402.210938 C 2392.03125 1403.128906 2391.191406 1404.011719 2390.308594 1404.871094 C 2389.339844 1405.839844 2388.289062 1406.71875 2387.289062 1407.660156 C 2385.109375 1409.171875 2382.820312 1410.519531 2380.449219 1411.71875 C 2380.328125 1411.769531 2380.21875 1411.839844 2380.089844 1411.878906 C 2378.871094 1412.28125 2377.640625 1412.820312 2376.441406 1413.179688 C 2374.039062 1413.910156 2371.589844 1414.339844 2369.148438 1414.859375 C 2369.03125 1414.859375 2368.921875 1414.878906 2368.800781 1414.878906 C 2366.96875 1415.019531 2365.140625 1415.078125 2363.308594 1415.078125 C 2361.898438 1415.070312 2360.488281 1415.03125 2359.070312 1414.941406 C 2358.601562 1414.910156 2356.769531 1414.710938 2355.71875 1414.609375 C 2354.910156 1414.480469 2354.140625 1414.351562 2353.828125 1414.289062 C 2351.789062 1413.878906 2349.761719 1413.398438 2347.738281 1412.851562 C 2344.460938 1411.960938 2341.300781 1410.75 2338.078125 1409.710938 C 2337.160156 1409.171875 2336.238281 1408.628906 2335.328125 1408.078125 C 2335.179688 1407.941406 2335.03125 1407.800781 2334.859375 1407.671875 C 2334.28125 1407.191406 2333.671875 1406.730469 2333.238281 1406.289062 C 2332.5 1405.558594 2331.820312 1404.769531 2331.121094 1403.988281 C 2329.730469 1401.929688 2328.488281 1399.78125 2327.371094 1397.570312 C 2327.25 1397.339844 2327.140625 1397.089844 2327.03125 1396.859375 C 2326.671875 1395.941406 2326.320312 1395.011719 2326.011719 1394.078125 C 2325.058594 1391.171875 2324.300781 1388.199219 2323.710938 1385.191406 C 2323.628906 1384.78125 2323.550781 1384.359375 2323.480469 1383.929688 C 2323.371094 1382.789062 2323.261719 1381.648438 2323.191406 1380.5 C 2323 1377.109375 2323.019531 1373.71875 2323.269531 1370.339844 C 2323.359375 1368.859375 2323.609375 1367.371094 2323.691406 1365.898438 C 2323.609375 1367.410156 2323.550781 1368.300781 2323.5 1368.960938 C 2323.410156 1370.058594 2323.398438 1370.5 2323.5 1368.960938 C 2323.578125 1368.089844 2323.710938 1366.890625 2323.871094 1366.101562 C 2324.570312 1362.769531 2325.488281 1359.5 2326.648438 1356.300781 C 2326.679688 1356.199219 2326.71875 1356.089844 2326.761719 1356 C 2327.488281 1354.578125 2328.160156 1353.148438 2328.949219 1351.769531 C 2329.769531 1350.371094 2330.691406 1349.039062 2331.550781 1347.660156 C 2333.75 1345.199219 2336.050781 1342.960938 2338.558594 1340.851562 C 2338.601562 1340.820312 2338.621094 1340.808594 2338.660156 1340.78125 C 2339.398438 1340.300781 2340.140625 1339.789062 2340.878906 1339.308594 C 2342.570312 1338.21875 2344.308594 1337.199219 2346.078125 1336.261719 C 2347.078125 1335.738281 2348.179688 1335.28125 2349.230469 1334.789062 C 2350.210938 1334.46875 2351.160156 1334.128906 2352.148438 1333.839844 C 2353.851562 1333.328125 2355.578125 1332.898438 2357.328125 1332.550781 Z M 2335.328125 1408.078125 C 2335.601562 1408.339844 2335.859375 1408.589844 2336.011719 1408.839844 C 2335.828125 1408.550781 2335.480469 1408.269531 2335.160156 1407.980469 C 2335.21875 1408.011719 2335.28125 1408.050781 2335.328125 1408.078125 Z M 2335.160156 1407.980469 C 2334.941406 1407.851562 2334.691406 1407.71875 2334.46875 1407.570312 C 2331.910156 1405.988281 2333.488281 1406.609375 2334.859375 1407.671875 C 2334.980469 1407.769531 2335.058594 1407.878906 2335.160156 1407.980469 Z M 2378.609375 1335.859375 C 2378.480469 1335.839844 2378.230469 1335.75 2377.960938 1335.640625 C 2378.179688 1335.71875 2378.421875 1335.828125 2378.609375 1335.859375 Z M 2386.28125 1408.511719 C 2386.039062 1408.691406 2385.921875 1408.78125 2386.28125 1408.511719 Z M 2299.851562 1441.980469 C 2314.738281 1455.808594 2334.988281 1461.320312 2354.75 1463.460938 C 2389.460938 1467.210938 2424.789062 1449.328125 2440.691406 1417.921875 C 2448.660156 1402.179688 2453.800781 1382.980469 2451.910156 1365.238281 C 2449.820312 1345.578125 2441.660156 1328.339844 2428.539062 1313.589844 C 2415.46875 1298.910156 2396.339844 1287.671875 2376.800781 1284.769531 C 2364.601562 1282.96875 2352.671875 1283.019531 2340.640625 1286.28125 C 2326.96875 1289.980469 2315.660156 1297.109375 2304.628906 1305.679688 C 2277.261719 1327.960938 2269.480469 1367.5 2277.101562 1400.601562 C 2280.589844 1415.769531 2288.320312 1431.300781 2299.851562 1441.980469 Z M 2573.800781 1317.601562 C 2573.699219 1318.699219 2573.691406 1319.140625 2573.800781 1317.601562 C 2573.871094 1316.730469 2574 1315.53125 2574.160156 1314.75 C 2574.859375 1311.421875 2575.78125 1308.148438 2576.941406 1304.949219 C 2576.96875 1304.839844 2577.011719 1304.75 2577.050781 1304.640625 C 2577.78125 1303.230469 2578.449219 1301.800781 2579.238281 1300.429688 C 2580.058594 1299.019531 2580.980469 1297.691406 2581.851562 1296.308594 C 2584.03125 1293.859375 2586.339844 1291.609375 2588.851562 1289.488281 C 2588.890625 1289.46875 2588.910156 1289.460938 2588.949219 1289.429688 C 2589.699219 1288.949219 2590.429688 1288.441406 2591.171875 1287.960938 C 2592.859375 1286.878906 2594.601562 1285.851562 2596.371094 1284.910156 C 2597.371094 1284.378906 2598.46875 1283.929688 2599.519531 1283.429688 C 2600.5 1283.121094 2601.460938 1282.769531 2602.441406 1282.488281 C 2604.148438 1281.980469 2605.878906 1281.550781 2607.621094 1281.199219 C 2607.800781 1281.160156 2607.851562 1281.148438 2607.988281 1281.109375 C 2611.179688 1280.988281 2614.300781 1280.988281 2617.5 1281.121094 C 2617.519531 1281.128906 2617.519531 1281.128906 2617.558594 1281.140625 C 2619.160156 1281.5 2620.75 1281.820312 2622.320312 1282.261719 C 2623.660156 1282.640625 2624.988281 1283.058594 2626.308594 1283.519531 C 2626.570312 1283.621094 2626.878906 1283.761719 2627.179688 1283.890625 C 2629.929688 1285.359375 2632.679688 1286.769531 2635.28125 1288.511719 C 2635.980469 1288.96875 2636.691406 1289.539062 2637.421875 1290.070312 C 2637.929688 1290.53125 2638.46875 1290.988281 2638.988281 1291.460938 C 2641.179688 1293.46875 2643.171875 1295.628906 2645.160156 1297.820312 C 2645.25 1297.921875 2645.269531 1297.941406 2645.339844 1298.019531 C 2646.261719 1299.378906 2647.199219 1300.71875 2648.058594 1302.121094 C 2648.859375 1303.441406 2649.628906 1304.769531 2650.328125 1306.140625 C 2650.550781 1306.550781 2651.011719 1307.570312 2651.339844 1308.28125 C 2651.488281 1308.710938 2651.628906 1309.078125 2651.699219 1309.28125 C 2652.238281 1310.890625 2652.710938 1312.539062 2653.101562 1314.191406 C 2653.210938 1314.628906 2653.398438 1315.730469 2653.558594 1316.621094 C 2653.570312 1316.75 2653.578125 1316.898438 2653.578125 1316.980469 C 2653.738281 1320.238281 2653.46875 1323.441406 2653.210938 1326.679688 C 2653.199219 1326.789062 2653.191406 1326.800781 2653.171875 1326.921875 C 2652.890625 1328.269531 2652.648438 1329.628906 2652.328125 1330.96875 C 2651.578125 1334.210938 2650.53125 1337.289062 2649.488281 1340.421875 C 2648.960938 1341.480469 2648.449219 1342.550781 2647.890625 1343.589844 C 2646.609375 1345.949219 2644.96875 1348.089844 2643.578125 1350.359375 C 2643.429688 1350.53125 2643.28125 1350.699219 2643.140625 1350.871094 C 2642.320312 1351.769531 2641.46875 1352.660156 2640.601562 1353.519531 C 2639.628906 1354.488281 2638.578125 1355.371094 2637.578125 1356.308594 C 2635.390625 1357.820312 2633.109375 1359.171875 2630.738281 1360.371094 C 2630.621094 1360.429688 2630.5 1360.480469 2630.378906 1360.53125 C 2629.160156 1360.929688 2627.929688 1361.46875 2626.730469 1361.828125 C 2624.328125 1362.558594 2621.890625 1362.988281 2619.441406 1363.5 C 2619.320312 1363.519531 2619.210938 1363.519531 2619.101562 1363.53125 C 2617.269531 1363.671875 2615.429688 1363.730469 2613.609375 1363.71875 C 2612.191406 1363.71875 2610.78125 1363.679688 2609.371094 1363.589844 C 2608.898438 1363.558594 2607.058594 1363.371094 2606.011719 1363.261719 C 2605.210938 1363.121094 2604.441406 1363 2604.128906 1362.941406 C 2602.078125 1362.53125 2600.050781 1362.050781 2598.03125 1361.5 C 2594.75 1360.609375 2591.589844 1359.390625 2588.371094 1358.351562 C 2587.441406 1357.820312 2586.53125 1357.28125 2585.621094 1356.730469 C 2585.46875 1356.589844 2585.308594 1356.449219 2585.148438 1356.320312 C 2584.570312 1355.839844 2583.960938 1355.371094 2583.539062 1354.941406 C 2582.789062 1354.210938 2582.109375 1353.421875 2581.398438 1352.640625 C 2580.019531 1350.578125 2578.769531 1348.429688 2577.660156 1346.210938 C 2577.539062 1345.980469 2577.441406 1345.738281 2577.320312 1345.511719 C 2576.96875 1344.578125 2576.609375 1343.660156 2576.300781 1342.71875 C 2575.351562 1339.820312 2574.589844 1336.851562 2574.011719 1333.839844 C 2573.921875 1333.421875 2573.839844 1333.011719 2573.769531 1332.589844 C 2573.660156 1331.441406 2573.550781 1330.300781 2573.480469 1329.160156 C 2573.289062 1325.761719 2573.320312 1322.371094 2573.550781 1318.988281 C 2573.648438 1317.511719 2573.898438 1316.03125 2573.988281 1314.539062 C 2573.898438 1316.050781 2573.839844 1316.941406 2573.800781 1317.601562 Z M 2585.449219 1356.628906 C 2585.511719 1356.660156 2585.570312 1356.691406 2585.621094 1356.730469 C 2585.890625 1356.980469 2586.148438 1357.238281 2586.300781 1357.488281 C 2586.128906 1357.199219 2585.769531 1356.921875 2585.449219 1356.628906 Z M 2585.148438 1356.320312 C 2585.269531 1356.429688 2585.339844 1356.519531 2585.449219 1356.628906 C 2585.230469 1356.5 2584.988281 1356.359375 2584.761719 1356.21875 C 2582.199219 1354.640625 2583.78125 1355.261719 2585.148438 1356.320312 Z M 2628.898438 1284.511719 C 2628.769531 1284.488281 2628.519531 1284.398438 2628.25 1284.300781 C 2628.46875 1284.359375 2628.710938 1284.480469 2628.898438 1284.511719 Z M 2636.601562 1357.140625 C 2636.328125 1357.339844 2636.210938 1357.441406 2636.601562 1357.140625 Z M 2550.128906 1390.628906 C 2565.03125 1404.449219 2585.289062 1409.960938 2605.039062 1412.101562 C 2639.75 1415.859375 2675.078125 1397.980469 2690.980469 1366.570312 C 2698.941406 1350.828125 2704.089844 1331.628906 2702.199219 1313.878906 C 2700.109375 1294.230469 2691.941406 1276.988281 2678.828125 1262.238281 C 2665.769531 1247.558594 2646.628906 1236.320312 2627.078125 1233.421875 C 2614.890625 1231.621094 2602.960938 1231.679688 2590.941406 1234.929688 C 2577.261719 1238.628906 2565.949219 1245.761719 2554.910156 1254.328125 C 2527.550781 1276.601562 2519.78125 1316.148438 2527.390625 1349.25 C 2530.878906 1364.421875 2538.621094 1379.949219 2550.128906 1390.628906 Z M 2760.800781 1757.941406 C 2759.578125 1757.320312 2754.261719 1754.261719 2750.828125 1752.320312 C 2751.121094 1751.859375 2751.308594 1751.578125 2751.648438 1750.96875 C 2768.941406 1720.269531 2794.589844 1695.171875 2824.328125 1676.609375 C 2829.410156 1716.949219 2834.480469 1757.308594 2839.550781 1797.660156 C 2827.601562 1791.628906 2815.648438 1785.601562 2803.699219 1779.570312 C 2789.398438 1772.359375 2775.101562 1765.171875 2760.800781 1757.941406 Z M 2748.351562 1750.929688 C 2748.078125 1750.789062 2747.890625 1750.691406 2747.871094 1750.699219 C 2748.148438 1750.488281 2748.28125 1750.648438 2748.351562 1750.929688 Z M 2868.441406 1638.679688 C 2865.988281 1619.199219 2849.828125 1609.710938 2831.660156 1617.578125 C 2804.53125 1629.359375 2779.671875 1645.941406 2757.910156 1665.980469 C 2746.238281 1676.738281 2735.910156 1688.648438 2726.300781 1701.261719 C 2717.148438 1713.28125 2707.078125 1726.691406 2702.738281 1741.328125 C 2690.441406 1782.878906 2733.761719 1798.941406 2762.941406 1813.660156 C 2793.328125 1828.988281 2823.710938 1844.320312 2854.089844 1859.640625 C 2857.320312 1862.558594 2861.371094 1864.519531 2866.199219 1865.148438 C 2876.898438 1868.210938 2888.679688 1864.738281 2894.679688 1854.46875 C 2899.730469 1845.828125 2898.589844 1833.640625 2891.988281 1825.980469 C 2884.140625 1763.550781 2876.289062 1701.121094 2868.441406 1638.679688 Z M 3346.871094 1652.679688 C 3347.140625 1652.828125 3347.328125 1652.921875 3347.339844 1652.921875 C 3347.050781 1653.109375 3346.929688 1652.960938 3346.871094 1652.679688 Z M 3270.878906 1727 C 3265.808594 1686.648438 3260.730469 1646.300781 3255.648438 1605.941406 C 3267.609375 1611.96875 3279.558594 1618.011719 3291.511719 1624.039062 C 3305.808594 1631.238281 3320.121094 1638.441406 3334.398438 1645.671875 C 3335.628906 1646.289062 3340.949219 1649.351562 3344.371094 1651.28125 C 3344.101562 1651.75 3343.890625 1652.03125 3343.558594 1652.628906 C 3326.269531 1683.351562 3300.609375 1708.449219 3270.878906 1727 Z M 3332.261719 1589.941406 C 3301.878906 1574.621094 3271.5 1559.300781 3241.121094 1543.96875 C 3237.878906 1541.050781 3233.839844 1539.078125 3229 1538.460938 C 3218.320312 1535.398438 3206.539062 1538.878906 3200.539062 1549.128906 C 3195.488281 1557.769531 3196.628906 1569.960938 3203.21875 1577.628906 C 3211.070312 1640.058594 3218.921875 1702.488281 3226.78125 1764.921875 C 3229.21875 1784.410156 3245.390625 1793.910156 3263.539062 1786.03125 C 3290.691406 1774.261719 3315.550781 1757.671875 3337.300781 1737.621094 C 3348.96875 1726.859375 3359.308594 1714.960938 3368.910156 1702.339844 C 3378.058594 1690.320312 3388.140625 1676.910156 3392.46875 1662.269531 C 3404.769531 1620.730469 3361.449219 1604.671875 3332.261719 1589.941406 Z M 3115.480469 1899.269531 C 3109.589844 1913.449219 3103.808594 1927.671875 3097.808594 1941.800781 C 3097.371094 1942.839844 3095.359375 1946.71875 3093.738281 1949.820312 C 3093.351562 1949.621094 3092.949219 1949.398438 3092.449219 1949.148438 C 3060.660156 1933.191406 3033.730469 1910.300781 3013.019531 1882.121094 C 3052.871094 1874.101562 3092.738281 1866.078125 3132.589844 1858.050781 C 3126.878906 1871.800781 3121.179688 1885.539062 3115.480469 1899.269531 Z M 3092.621094 1951.960938 C 3092.011719 1953.121094 3091.589844 1953.929688 3091.589844 1953.929688 C 3090.140625 1952.421875 3091.179688 1952.058594 3092.621094 1951.960938 Z M 3180.851562 1797.179688 C 3171.691406 1794.671875 3163.910156 1797.519531 3158.160156 1803.160156 C 3094.488281 1815.980469 3030.800781 1828.789062 2967.121094 1841.609375 C 2950.929688 1844.878906 2945.691406 1864.46875 2952.519531 1877.511719 C 2966.671875 1904.5 2985.660156 1929.390625 3008.179688 1949.949219 C 3019.039062 1959.871094 3030.820312 1969.019531 3043.101562 1977.109375 C 3055.960938 1985.601562 3071 1995.269531 3086.230469 1998.5 C 3129.710938 2007.710938 3142.101562 1961.621094 3154.929688 1930.761719 C 3167.441406 1900.621094 3179.960938 1870.480469 3192.46875 1840.351562 C 3195.230469 1836.71875 3197.078125 1832.328125 3197.679688 1827.820312 C 3197.761719 1827.621094 3197.839844 1827.429688 3197.921875 1827.238281 C 3202.980469 1815.050781 3192.441406 1800.371094 3180.851562 1797.179688 Z M 2972.46875 1491.589844 C 2979.679688 1477.300781 2986.871094 1462.988281 2994.101562 1448.710938 C 2994.71875 1447.480469 2997.78125 1442.160156 2999.71875 1438.738281 C 3000.179688 1439.011719 3000.460938 1439.21875 3001.058594 1439.550781 C 3031.78125 1456.839844 3056.878906 1482.488281 3075.429688 1512.230469 C 3035.078125 1517.300781 2994.730469 1522.378906 2954.378906 1527.449219 C 2960.410156 1515.5 2966.441406 1503.550781 2972.46875 1491.589844 Z M 3001.351562 1435.769531 C 3001.539062 1436.050781 3001.398438 1436.179688 3001.109375 1436.238281 C 3001.261719 1435.96875 3001.351562 1435.789062 3001.351562 1435.769531 Z M 3113.351562 1556.328125 C 3132.851562 1553.878906 3142.339844 1537.71875 3134.460938 1519.558594 C 3122.691406 1492.421875 3106.101562 1467.558594 3086.050781 1445.808594 C 3075.300781 1434.140625 3063.390625 1423.800781 3050.769531 1414.191406 C 3038.761719 1405.050781 3025.351562 1394.96875 3010.710938 1390.640625 C 2969.160156 1378.339844 2953.101562 1421.660156 2938.371094 1450.839844 C 2923.050781 1481.21875 2907.730469 1511.601562 2892.398438 1541.988281 C 2889.480469 1545.21875 2887.511719 1549.269531 2886.878906 1554.109375 C 2883.839844 1564.789062 2887.308594 1576.570312 2897.558594 1582.570312 C 2906.199219 1587.628906 2918.390625 1586.480469 2926.058594 1579.890625 C 2988.488281 1572.03125 3050.929688 1564.179688 3113.351562 1556.328125 Z M 3727.378906 2192.839844 C 3725.28125 2179.800781 3709.03125 2172.550781 3697.300781 2175.769531 C 3683.429688 2179.578125 3678.148438 2192.75 3680.238281 2205.828125 C 3697.089844 2310.871094 3705.96875 2418.128906 3698.878906 2524.46875 C 3693.578125 2603.878906 3679.359375 2687.46875 3639.160156 2756.96875 C 3621.101562 2788.230469 3597.601562 2815.25 3568.328125 2833.921875 C 3541.890625 2850.789062 3566.371094 2893.109375 3593 2876.128906 C 3659.558594 2833.648438 3698.511719 2762.300781 3720.53125 2688.289062 C 3748.628906 2593.851562 3753.078125 2492.421875 3748.839844 2394.550781 C 3745.898438 2326.949219 3738.089844 2259.621094 3727.378906 2192.839844 Z M 2438.019531 2624.660156 C 2439.71875 2624.421875 2441.511719 2624.25 2438.019531 2624.660156 Z M 2395.800781 2636.238281 C 2395.941406 2636.179688 2396.078125 2636.128906 2396.21875 2636.070312 C 2392.179688 2637.871094 2394.570312 2636.710938 2395.800781 2636.238281 Z M 2137.171875 1081.949219 C 2124.789062 1045.179688 2120.171875 1006.621094 2124.789062 967.980469 C 2128.679688 935.460938 2138.449219 898.359375 2162.570312 874.75 C 2172.160156 865.351562 2184.761719 858.558594 2198.25 857.191406 C 2213.949219 855.601562 2226.050781 862.671875 2236.578125 873.800781 C 2259.46875 898 2273.78125 930.710938 2283.640625 962.109375 C 2293.71875 994.238281 2299.78125 1027.398438 2305.019531 1060.628906 C 2249.261719 1069.460938 2193.710938 1079.628906 2138.441406 1091.011719 C 2138.578125 1088.191406 2138.269531 1085.191406 2137.171875 1081.949219 Z M 3872.71875 2112.730469 C 3834.691406 1939.460938 3778.730469 1769.679688 3705.199219 1608.210938 C 3641.160156 1467.558594 3562.53125 1328.96875 3456.511719 1215.421875 C 3413.941406 1169.839844 3365.671875 1127.820312 3310.980469 1097.398438 C 3255.269531 1066.421875 3193.730469 1052.878906 3131.410156 1042.308594 C 2963.261719 1013.808594 2790.660156 1013.441406 2620.910156 1024.808594 C 2531.351562 1030.808594 2441.988281 1040.53125 2353.058594 1053.390625 C 2347.410156 1016.921875 2340.96875 980.449219 2329.550781 945.300781 C 2316.601562 905.460938 2297.03125 862.351562 2265.460938 833.640625 C 2244.699219 814.738281 2218.210938 806.539062 2192.101562 809.050781 C 2191.890625 807.628906 2191.628906 806.191406 2191.140625 804.679688 C 2168.699219 735.640625 2116.359375 664.171875 2040.308594 651.300781 C 1969.160156 639.261719 1909.800781 679.800781 1867.191406 733.121094 C 1823.351562 787.980469 1792.640625 852.449219 1745.328125 904.570312 C 1695.398438 959.578125 1632.089844 1002.859375 1562.339844 1028.660156 C 1483.730469 1057.730469 1402.578125 1062.121094 1319.828125 1052.210938 C 1227.488281 1041.140625 1137.171875 1016.570312 1044.121094 1010.800781 C 890.546875 1001.269531 726.5625 1050.890625 619.433594 1165 C 516.558594 1274.578125 477.988281 1443.71875 538.300781 1583.640625 C 545.339844 1599.980469 553.785156 1615.570312 563.53125 1630.449219 C 580.714844 1656.648438 623.054688 1632.191406 605.738281 1605.78125 C 530.046875 1490.328125 549.84375 1332.300781 631.832031 1225.328125 C 719.132812 1111.441406 868.347656 1058.179688 1008.261719 1058.488281 C 1095.378906 1058.679688 1180.398438 1079.730469 1265.941406 1093.480469 C 1349.179688 1106.851562 1432.898438 1112.660156 1515.75 1093.609375 C 1589.269531 1076.691406 1658.171875 1042.78125 1717.621094 996.601562 C 1775.320312 951.78125 1816.621094 895.339844 1855.75 834.460938 C 1886.011719 787.371094 1921.230469 728.691406 1972.960938 706.289062 C 2033.859375 679.910156 2092.46875 719.71875 2123.820312 772.820312 C 2132.25 787.078125 2138.890625 801.929688 2144.011719 817.671875 C 2144.898438 820.390625 2146.179688 822.648438 2147.621094 824.691406 C 2147.101562 825.019531 2146.558594 825.300781 2146.039062 825.648438 C 2109.121094 850.371094 2090.011719 892.96875 2081.03125 935.191406 C 2069.78125 988.160156 2072.738281 1043.589844 2090.039062 1094.949219 C 2090.761719 1097.070312 2091.710938 1098.910156 2092.769531 1100.609375 C 2071.96875 1105.160156 2051.199219 1109.789062 2030.488281 1114.691406 C 1841.910156 1159.328125 1655.851562 1218.628906 1479.738281 1299.988281 C 1333.050781 1367.75 1186.949219 1452.738281 1075.609375 1571.699219 C 1031.609375 1618.730469 992.953125 1671.789062 966.949219 1730.941406 C 949.824219 1770.421875 940.761719 1812.578125 934.390625 1855 C 925.660156 1913.171875 921.535156 1971.921875 920.1875 2030.710938 C 916.8125 2177.871094 929.414062 2325.621094 953.488281 2470.75 C 979.570312 2627.898438 1020.621094 2783.460938 1084.949219 2929.480469 C 1142.238281 3059.542969 1221.300781 3185.753906 1335.050781 3273.585938 C 1447.230469 3360.199219 1587.699219 3395.808594 1727.761719 3373.851562 C 1859.859375 3353.148438 1964.71875 3271.269531 2042.488281 3165.988281 C 2116.101562 3066.316406 2165.28125 2951.851562 2222.769531 2842.78125 C 2236 2817.671875 2249.75 2792.78125 2264.671875 2768.621094 C 2271.53125 2757.519531 2278.648438 2746.578125 2286.109375 2735.878906 C 2289.640625 2730.839844 2293.261719 2725.871094 2296.921875 2720.921875 C 2297.769531 2719.761719 2298.640625 2718.628906 2299.511719 2717.480469 C 2301.578125 2714.859375 2303.660156 2712.238281 2305.78125 2709.660156 C 2320.410156 2691.800781 2336.539062 2675.25 2354.578125 2660.820312 C 2355.78125 2659.910156 2357.769531 2658.378906 2358.359375 2657.949219 C 2360.421875 2656.46875 2362.511719 2655.011719 2364.621094 2653.589844 C 2369.628906 2650.230469 2374.769531 2647.058594 2380.050781 2644.128906 C 2384.421875 2641.691406 2388.898438 2639.519531 2393.398438 2637.351562 C 2394.339844 2636.890625 2395.300781 2636.480469 2396.261719 2636.058594 C 2399.128906 2634.949219 2402.011719 2633.820312 2404.921875 2632.808594 C 2415.300781 2629.210938 2425.859375 2626.871094 2436.648438 2624.851562 C 2436.929688 2624.800781 2437.359375 2624.738281 2437.820312 2624.679688 C 2438.878906 2624.550781 2439.949219 2624.398438 2441.03125 2624.308594 C 2443.679688 2624.101562 2446.320312 2623.839844 2448.96875 2623.671875 C 2454.960938 2623.308594 2460.96875 2623.210938 2466.96875 2623.371094 C 2473.25 2623.519531 2479.480469 2624.03125 2485.71875 2624.628906 C 2486.890625 2624.738281 2488.050781 2624.898438 2489.21875 2625.03125 C 2489.25 2625.03125 2489.25 2625.03125 2489.28125 2625.039062 C 2489.480469 2625.070312 2489.539062 2625.078125 2489.789062 2625.128906 C 2493.398438 2625.71875 2497 2626.289062 2500.578125 2626.980469 C 2514.75 2629.71875 2528.679688 2633.558594 2542.320312 2638.191406 C 2572.628906 2648.449219 2600.238281 2662.171875 2630.988281 2680.230469 C 2669.050781 2702.589844 2705.230469 2728.238281 2739.820312 2755.609375 C 2898.871094 2881.460938 3041.691406 3040.628906 3241.980469 3100.730469 C 3350 3133.144531 3464.730469 3128.285156 3571.238281 3092.253906 C 3634.558594 3070.824219 3696.511719 3040.71875 3752.210938 3003.710938 C 3773.769531 2989.378906 3793.371094 2972.046875 3810.039062 2952.25 C 3891.511719 2855.601562 3914.460938 2720.75 3920.980469 2598.289062 C 3929.609375 2435.710938 3907.53125 2271.28125 3872.71875 2112.730469 "/>
</svg>
